<svg xmlns="http://www.w3.org/2000/svg" height="511pt" viewBox="1 -69 511.999 511" width="511pt"><path d="m491.605469 214.511719c4.492187-1.335938 8.605469-3.773438 12.003906-7.175781 5.410156-5.394532 8.390625-12.578126 8.390625-20.226563 0-7.632813-2.976562-14.816406-8.382812-20.222656l-12.394532-12.394531c4.402344-1.3125 8.554688-3.703126 12.023438-7.175782 5.398437-5.398437 8.371094-12.578125 8.371094-20.21875 0-7.648437-2.972657-14.832031-8.371094-20.230468l-71.207032-71.210938c-17.8125-17.808594-41.75-30.191406-65.675781-33.960938-27.65625-4.363281-52.964843 3.308594-71.265625 21.609376l-16.238281 16.238281c-10.011719 10.007812-17.714844 21.707031-22.863281 34.449219-5.148438-12.738282-12.855469-24.4375-22.863282-34.445313l-16.234374-16.242187c-31.757813-31.761719-76.078126-25.765626-106.96875-9.566407-3.675782 1.929688-5.09375 6.46875-3.164063 10.144531 1.925781 3.675782 6.46875 5.09375 10.140625 3.164063 26.160156-13.71875 63.371094-19.113281 89.367188 6.882813l16.230468 16.238281c16.757813 16.753906 25.984375 39.027343 25.984375 62.714843v101.625c0 9.789063-7.96875 17.753907-17.765625 17.753907-9.785156 0-17.75-7.96875-17.75-17.773438l.054688-52.082031 12.609375-12.613281c2.9375-2.933594 2.9375-7.691407.003906-10.625-2.9375-2.9375-7.695313-2.9375-10.628906-.003907l-121.652344 121.65625c-2.570313 2.566407-5.976563 3.980469-9.59375 3.980469-3.628906 0-7.03125-1.410156-9.597656-3.984375-5.289063-5.28125-5.292969-13.882812-.003907-19.175781.015626-.015625.027344-.035156.042969-.050781l77.851563-77.851563c2.933594-2.933593 2.933594-7.691406 0-10.625-2.933594-2.933593-7.691406-2.933593-10.625 0l-96.664063 96.667969c-2.5625 2.5625-5.972656 3.976562-9.597656 3.976562-3.628906 0-7.035156-1.414062-9.601563-3.976562-2.558593-2.5625-3.96875-5.96875-3.96875-9.59375 0-3.632812 1.410157-7.042969 3.96875-9.605469l91.8125-91.808593c2.933594-2.933594 2.933594-7.691407 0-10.625-2.933593-2.933594-7.691406-2.933594-10.625 0l-68.527343 68.527343c-.011719.011719-.023438.019531-.03125.027344-2.5625 2.558594-5.972657 3.972656-9.605469 3.972656-3.625 0-7.03125-1.414062-9.601562-3.980469-2.554688-2.546874-3.960938-5.953124-3.960938-9.585937 0-3.628906 1.410156-7.035156 3.96875-9.59375l74.804688-74.804687c2.933593-2.933594 2.933593-7.691407 0-10.625-2.9375-2.9375-7.695313-2.9375-10.628907 0l-44.605469 44.605468s-.003906.003906-.003906.003906c-2.5625 2.5625-5.96875 3.972657-9.59375 3.972657s-7.03125-1.410157-9.589844-3.976563c-2.5625-2.558594-3.972656-5.96875-3.972656-9.59375 0-3.632812 1.410156-7.042968 3.96875-9.601562l71.210938-71.210938c1.109375-1.109375 2.230468-2.179687 3.332031-3.183594 3.070313-2.796874 3.292969-7.546874.5-10.617187-2.792969-3.066406-7.546875-3.289063-10.613281-.496094-1.277344 1.164063-2.570313 2.394531-3.84375 3.667969l-71.210938 71.210938c-5.398437 5.402343-8.371094 12.585937-8.371094 20.230468 0 7.640625 2.972657 14.824219 8.371094 20.21875 3.402344 3.40625 7.515625 5.851563 12.003906 7.191406l-12.382812 12.382813c-5.402344 5.394531-8.375 12.578125-8.375 20.21875 0 7.652344 2.976562 14.835937 8.371094 20.21875 3.40625 3.40625 7.523437 5.847656 12.015625 7.183594l-5.441407 5.445312c-5.402343 5.398438-8.375 12.582031-8.375 20.230469 0 7.640625 2.976563 14.820312 8.375 20.21875 5.402344 5.402344 12.585938 8.378906 20.222657 8.378906 7.640625 0 14.824219-2.976562 20.226562-8.378906l.976563-.972656c1.308594 4.398437 3.695312 8.542968 7.164062 12.007812 5.398438 5.410156 12.582032 8.386719 20.226563 8.386719 7.636719 0 14.816406-2.976563 20.222656-8.378906l94-93.992188-.042969 37.042969c0 18.078125 14.707032 32.789062 32.78125 32.789062 10.160156 0 19.257813-4.644531 25.273438-11.917968 6.019531 7.273437 15.113281 11.917968 25.269531 11.917968 18.074219 0 32.78125-14.710937 32.78125-32.816406l-.035156-37.019531 59.757812 59.761719c2.9375 2.933594 7.695313 2.933594 10.628907 0 2.933593-2.933594 2.933593-7.691406 0-10.625l-87.421876-87.421875c-2.933593-2.933594-7.691406-2.933594-10.625 0-2.9375 2.933593-2.9375 7.691406 0 10.625l12.621094 12.621093.046875 52.085938c0 9.792969-7.964843 17.761719-17.753906 17.761719s-17.753906-7.964844-17.753906-17.753907v-101.625c0-23.695312 9.222656-45.964843 25.972656-62.714843l16.238281-16.238281c18.980469-18.980469 42.179688-19.933594 58.300782-17.394532 20.546874 3.242188 42 14.363282 57.386718 29.746094l71.210938 71.210938c2.558594 2.5625 3.96875 5.972656 3.96875 9.605468 0 3.625-1.410156 7.035156-3.96875 9.59375-5.289063 5.289063-13.886719 5.292969-19.179688.019532-.007812-.007813-.011718-.015626-.019531-.019532l-44.605469-44.609375c-2.933594-2.933593-7.691406-2.933593-10.625 0-2.9375 2.9375-2.9375 7.695313 0 10.628907l74.796875 74.800781c2.570313 2.570312 3.984375 5.976562 3.984375 9.597656 0 3.625-1.414062 7.03125-3.984375 9.59375-2.558593 2.558594-5.964843 3.96875-9.589843 3.96875-3.628907 0-7.035157-1.410156-9.597657-3.96875-.03125-.03125-.0625-.058594-.097656-.089844l-68.464844-68.46875c-2.9375-2.933593-7.691406-2.933593-10.628906 0-2.933594 2.9375-2.933594 7.695313 0 10.625l91.8125 91.8125c2.566406 2.566407 3.976563 5.976563 3.976563 9.601563 0 3.621094-1.410157 7.027344-3.980469 9.59375-2.5625 2.566406-5.96875 3.976562-9.59375 3.976562-3.621094 0-7.03125-1.410156-9.59375-3.976562l-96.667969-96.664063c-2.9375-2.933593-7.691406-2.933593-10.628906 0-2.933594 2.933594-2.933594 7.691407 0 10.625l77.90625 77.902344c.003906.003906.007812.007813.011718.011719 5.269532 5.289062 5.261719 13.882812-.019531 19.167968-2.566406 2.566407-5.980469 3.980469-9.605469 3.980469-3.617187 0-7.027343-1.414062-9.59375-3.980469l-12.992187-12.996093c-2.9375-2.933594-7.695313-2.933594-10.628906 0-2.933594 2.9375-2.933594 7.691406 0 10.625l12.996093 12.996093c5.40625 5.40625 12.585938 8.382813 20.21875 8.382813 7.640626 0 14.824219-2.976563 20.230469-8.382813 3.46875-3.46875 5.859375-7.617187 7.167969-12.019531l.980469.980469c5.402343 5.398438 12.585937 8.375 20.222656 8.375s14.816406-2.976562 20.21875-8.375c5.40625-5.40625 8.382813-12.585938 8.382813-20.222656 0-7.640625-2.976563-14.824219-8.378907-20.226563zm0 0"></path><path d="m259.035156 319.578125c34.164063 0 66.898438-14.554687 89.804688-39.933594 2.78125-3.078125 2.539062-7.828125-.542969-10.609375-3.078125-2.78125-7.832031-2.539062-10.613281.542969-20.0625 22.222656-48.726563 34.972656-78.648438 34.972656-29.917968 0-58.585937-12.75-78.648437-34.972656-2.78125-3.082031-7.53125-3.324219-10.613281-.542969-3.078126 2.777344-3.320313 7.53125-.542969 10.609375 22.910156 25.378907 55.640625 39.933594 89.804687 39.933594zm0 0"></path><path d="m364.558594 319.28125c-29.183594 25.566406-66.65625 39.644531-105.523438 39.644531-38.863281 0-76.339844-14.078125-105.519531-39.644531-3.121094-2.734375-7.871094-2.421875-10.605469.703125-2.734375 3.121094-2.417968 7.867187.703125 10.601563 31.921875 27.96875 72.914063 43.367187 115.421875 43.367187 42.511719 0 83.5-15.402344 115.425782-43.367187 3.121093-2.734376 3.433593-7.480469.699218-10.601563s-7.480468-3.4375-10.601562-.703125zm0 0"></path></svg>