<?xml version="1.0" standalone="no"?>
<!DOCTYPE svg PUBLIC "-//W3C//DTD SVG 1.0//EN" "http://www.w3.org/TR/2001/REC-SVG-20010904/DTD/svg10.dtd">
<svg xmlns="http://www.w3.org/2000/svg" xmlns:xlink="http://www.w3.org/1999/xlink" id="body_1" width="88" height="88">

<defs>
                <clipPath  id="1">

                    <path clip-rule="evenodd" d="M0 600L600 600L600 0L0 0L0 600z" />                </clipPath>
</defs>

<g transform="matrix(0.11 0 0 0.11 0 0)">
	<g transform="matrix(1.3333333 0 -0 -1.3333333 0 800)">
		<g>
			<g clip-path="url(#1)" >
                <path d="M450.788 157.711C 460.283 146.469 429.53 117.457 412.68298 113.59C 408.938 112.731995 405.87698 113.106995 404.102 115.202995C 379.96298 163.479 350.464 210.543 315.388 256.404C 273.789 214.096 225.381 164.84 217.55899 156.79099C 203.44699 142.27298 171.47899 123.638985 153.20299 125.01598L153.20299 125.01598L288.494 290.016C 287.52 291.18 286.541 292.34198 285.56097 293.504L285.56097 293.504L156.346 134.727C 154.916 144.791 174.03 175.117 193.63899 197.852C 202.14099 207.709 248.56299 263.75 279.9 298.992C 273.706 302.488 267.72998 304.198 262.08 304.639C 239.26999 306.42502 221.79498 287.582 216.78899 282.398C 216.178 281.76602 215.749 281.332 215.52098 281.17C 212.30698 278.855 209.47998 282.631 210.43799 284.73L210.43799 284.73L214.43 288.363L256.117 326.321L253.365 329.34302L211.143 290.902L208.69301 288.67C 207.766 287.82602 206.32901 287.89502 205.48401 288.82C 204.641 289.74802 204.70702 291.186 205.63501 292.02902L205.63501 292.02902L208.617 294.74402L250.307 332.703L247.55501 335.725L205.33301 297.28302L202.88301 295.053C 201.95502 294.207 200.518 294.275 199.67401 295.203C 198.83002 296.131 198.89601 297.566 199.82501 298.41L199.82501 298.41L202.14502 300.523L244.49602 339.083L242.05101 341.771L199.83002 303.331L197.37802 301.098C 196.45102 300.253 195.01602 300.32098 194.17003 301.249C 193.32503 302.176 193.39304 303.613 194.32002 304.458L194.32002 304.458L197.30103 307.17102L238.99203 345.12903L236.23903 348.15204L194.02002 309.71103L191.56802 307.48102C 190.64102 306.635 189.20403 306.703 188.35902 307.631C 187.51602 308.557 187.58302 309.99503 188.51003 310.838L188.51003 310.838L191.49303 313.55502L233.18202 351.51102L230.43002 354.535L188.20901 316.09302L185.75801 313.86203C 184.83002 313.01703 183.393 313.084 182.55101 314.01202C 181.70502 314.94003 181.77101 316.37503 182.70001 317.22003L182.70001 317.22003L185.02002 319.33304L227.37102 357.89304L224.92601 360.58102L182.70502 322.14L180.25302 319.90802C 179.32503 319.06302 177.89102 319.13 177.04503 320.058C 176.20103 320.98602 176.26804 322.42102 177.19502 323.26602L177.19502 323.26602L180.17802 325.98203L221.86702 363.93802L219.11502 366.96103L176.89502 328.52002L174.44302 326.29C 173.51602 325.445 172.07903 325.512 171.23402 326.44C 170.39102 327.368 170.45703 328.803 171.38503 329.64902L171.38503 329.64902L174.36702 332.364L216.05702 370.32L213.30502 373.34302L171.08401 334.902L168.63301 332.67102C 167.70502 331.82703 166.268 331.894 165.42401 332.82202C 164.58002 333.75003 164.64601 335.18604 165.57501 336.02902L165.57501 336.02902L167.89502 338.14203L210.24602 376.70203L207.80101 379.38904L165.57901 340.94904L163.128 338.71603C 162.201 337.87305 160.766 337.93903 159.92001 338.86804C 159.07602 339.79404 159.14302 341.23105 160.07 342.07605L160.07 342.07605L163.05301 344.79205L204.742 382.74805L201.989 385.77106L159.76999 347.33105L157.318 345.09906C 156.39099 344.25305 154.954 344.32104 154.109 345.25006C 153.26599 346.17606 153.332 347.61206 154.26 348.45807L154.26 348.45807L157.243 351.17206L198.93199 389.12906L196.18 392.15207L153.95898 353.71207L151.50798 351.48007C 150.57999 350.63507 149.14497 350.70407 148.29898 351.63007C 147.45499 352.55905 147.52098 353.99506 148.44998 354.83807L148.44998 354.83807L150.76999 356.95108L193.12099 395.51007L190.67598 398.19708L148.45499 359.75708L146.00299 357.5251C 145.07599 356.6821 143.63899 356.7501 142.795 357.6761C 141.951 358.6041 142.018 360.04108 142.94499 360.8841L142.94499 360.8841L145.928 363.6011L187.61699 401.5571L184.86398 404.5801L142.64499 366.1391L140.193 363.9081C 139.26599 363.0631 137.829 363.1301 136.984 364.0591C 136.14099 364.9851 136.207 366.4211 137.135 367.26712L137.135 367.26712L140.11699 369.9811L181.80699 407.9381L179.055 410.96112L136.83398 372.52112L134.38298 370.29013C 133.45499 369.44412 132.01797 369.51312 131.17398 370.43912C 130.32999 371.3681 130.39598 372.80313 131.32498 373.64813L131.32498 373.64813L133.64297 375.75912L175.99597 414.32013L173.55096 417.00613L131.32896 378.56613L128.87796 376.33514C 127.95096 375.49115 126.51596 375.55914 125.66996 376.48514C 124.82496 377.41412 124.89296 378.85013 125.81996 379.69315L125.81996 379.69315L128.80296 382.41016L170.49196 420.36615L167.73996 423.38916L125.51996 384.94916L123.067955 382.71616C 122.14095 381.87317 120.70396 381.93915 119.858955 382.86816C 119.01595 383.79416 119.081955 385.23117 120.00996 386.07617L120.00996 386.07617L122.99296 388.79218L164.68196 426.74817L161.92996 429.77118L119.70896 391.33118L117.257965 389.09918C 116.32996 388.25317 114.89297 388.32117 114.050964 389.25018C 113.20496 390.17618 113.270966 391.61218 114.19997 392.4582L114.19997 392.4582L116.519966 394.56818L158.87097 433.12918L156.42596 435.8152L114.203964 397.37518L111.75297 395.14517C 110.825966 394.29916 109.38897 394.36816 108.54497 395.29416C 107.700966 396.22314 107.76797 397.65915 108.69497 398.50217L108.69497 398.50217L111.67797 401.21817L153.36697 439.17416L150.61497 442.19717L108.39497 403.75717L105.94297 401.52518C 105.01597 400.6822 103.57897 400.75018 102.73397 401.67618C 101.89097 402.6042 101.95697 404.04117 102.88497 404.8842L102.88497 404.8842L105.865974 407.6002L147.55698 445.5572L144.80498 448.5802L102.58298 410.1392L100.13298 407.9082C 99.20498 407.0632 97.76798 407.1302 96.92398 408.0582C 96.07998 408.9852 96.14598 410.4212 97.07498 411.2672L97.07498 411.2672L99.39498 413.3772L141.74599 451.9382L139.30098 454.6252L97.07898 416.1852L94.62798 413.95422C 93.70098 413.10822 92.26598 413.1762 91.41998 414.10422C 90.57598 415.03223 90.64298 416.46722 91.569984 417.31323L91.569984 417.31323L94.552986 420.02722L136.24199 457.98322L133.48999 461.00623L91.26999 422.56622L88.817986 420.33524C 87.89098 419.49124 86.45399 419.55823 85.608986 420.48523C 84.76598 421.41324 84.831985 422.85022 85.75999 423.69324L85.75999 423.69324L88.74199 426.41025L130.43199 464.36624L127.67999 467.38925L85.45799 428.94925L83.007996 426.71625C 82.079994 425.87326 80.643 425.93924 79.798996 426.86826C 78.954994 427.79425 79.020996 429.23126 79.95 430.07626L79.95 430.07626L82.27 432.18826L124.621 470.74826L122.176 473.43527L79.954 434.99527L77.503006 432.76328C 76.576004 431.91827 75.13901 431.98526 74.295006 432.91327C 73.450005 433.84027 73.518005 435.27628 74.44501 436.12228L74.44501 436.12228L77.42801 438.83627L119.117004 476.79327L116.365005 479.81528L74.145004 441.37628L71.693 439.1453C 70.766 438.2993 69.329 438.36728 68.484 439.29428C 67.641 440.2223 67.707 441.65927 68.635 442.5023L68.635 442.5023L71.617004 445.2173L113.30701 483.1743L110.55501 486.1973L68.33401 447.7573L65.88301 445.5253C 64.95501 444.6823 63.51801 444.7493 62.67401 445.6763C 61.83001 446.6043 61.89601 448.0403 62.825012 448.8843L62.825012 448.8843L65.14501 450.9973L107.49602 489.5573L105.05102 492.24432L62.830017 453.8033L60.378017 451.57132C 59.45102 450.72833 58.01402 450.7943 57.170017 451.72232C 56.326015 452.64932 56.393017 454.08533 57.32002 454.93134L57.32002 454.93134L60.30302 457.64633L101.99202 495.60333L99.24002 498.62534L57.02002 460.18634L54.56802 457.95435C 53.64102 457.10834 52.20402 457.17633 51.35902 458.10434C 50.51602 459.03033 50.58202 460.46735 51.51002 461.31335L51.51002 461.31335L75.75202 483.38336L96.18202 501.98337L95.07102 503.20438L48.950024 467.35336L47.229023 466.01535C 46.116024 465.00134 44.393024 465.08334 43.379025 466.19434C 42.365025 467.30835 42.446026 469.03235 43.559025 470.04434L43.559025 470.04434L99.314026 520.8093C 99.508026 520.98334 99.69402 521.1533 99.871025 521.31433C 99.871025 521.3153 99.872025 521.31635 99.873024 521.31635L99.873024 521.31635L106.28403 525.9993C 108.63103 528.13434 111.95003 528.4793 114.14503 527.1583C 114.52803 526.92535 114.883026 526.6483 115.18603 526.3153C 236.928 410.959 347.521 287.121 450.788 157.711zM313.54 327.885C 311.94702 329.669 310.354 331.454 308.756 333.23502C 317.824 344.419 327.708 356.23502 337.721 365.85303L337.721 365.85303L344.846 366.35303zM548.116 401.877C 533.03705 380.98102 508.21603 373.13202 492.67703 384.345C 477.14005 395.561 476.76904 421.589 491.84903 442.485C 506.92902 463.382 531.75 471.231 547.289 460.01797C 562.827 448.80298 563.198 422.77298 548.116 401.87698zM335.545 337.076C 336.52502 339.06 338.006 340.83 339.97 342.16C 346.013 346.254 354.231 344.67502 358.326 338.632C 359.65698 336.66898 360.378 334.478 360.55298 332.272zM354.80103 320.275C 348.75803 316.18 340.53903 317.758 336.44302 323.801C 334.79102 326.242 334.07803 329.034 334.19302 331.767L334.19302 331.767L359.842 326.84C 358.936 324.259 357.239 321.928 354.80103 320.275M399.79703 475.26398C 389.04703 491.12598 397.62503 515.70496 418.959 530.162C 440.29 544.61896 466.298 543.479 477.048 527.617C 487.798 511.753 479.22 487.175 457.887 472.71802C 436.555 458.26102 410.547 459.40002 399.797 475.264M557.819 474.759C 534.62695 491.49802 498.85297 481.548 477.91696 452.54C 475.85397 449.68002 474.02097 446.741 472.39795 443.751C 451.88394 417.233 428.13995 394.525 394.58395 378.626C 393.59897 373.776 385.84595 355.603 382.58795 348.176L382.58795 348.176L379.67395 349.87698L379.89395 353.52298C 393.61996 393.37698 417.34995 421.63397 457.42896 452.774C 460.84195 454.435 464.20496 456.35397 467.47495 458.569C 497.09094 478.64 508.09094 514.104 492.04495 537.779C 475.99896 561.457 438.98395 564.37897 409.36896 544.31C 379.75494 524.239 368.75494 488.775 384.79996 465.1C 391.98697 454.49402 403.38696 448.068 416.43896 445.989C 416.39096 445.96902 416.35495 445.95602 416.35495 445.95602L416.35495 445.95602L316.672 324.382C 327.068 312.711 337.385 300.981 347.624 289.189C 365.50198 307.369 377.873 319.94598 377.873 319.94598L377.873 319.94598L378.878 336.646L463.826 401.987C 465.499 388.842 471.591 377.223 482.003 369.707C 505.19498 352.969 540.97 362.918 561.904 391.926C 582.841 420.93698 581.01 458.021 557.819 474.759" stroke="none" fill="#231F20" fill-rule="nonzero" />
			</g>
		</g>
	</g>
</g>
</svg>