<svg xmlns="http://www.w3.org/2000/svg" width="1920" height="110.604" viewBox="0 0 1920 110.604" preserveAspectRatio="none">
  <path id="Subtraction_1" data-name="Subtraction 1" d="M1920,111H960.148c57.184,0,117.389-1.6,178.943-4.752,55.986-2.867,114.338-7.082,173.434-12.529,99.532-9.174,202.986-21.966,307.49-38.02,41.06-6.308,82.378-13.14,122.807-20.306,32.349-5.734,64.2-11.694,94.683-17.714C1889.142,7.479,1919.7.466,1920,.4V111Zm-963.39,0H0V.4C.287.462,30.868,7.48,82.5,17.678c30.483,6.02,62.342,11.98,94.692,17.714,40.434,7.167,81.756,14,122.818,20.306,104.512,16.054,207.973,28.846,307.51,38.02,59.1,5.447,117.453,9.662,173.441,12.529,60.344,3.09,119.439,4.688,175.644,4.75Z" transform="translate(0 -0.396)" fill="#fff"/>
</svg>
